<?xml version="1.0" encoding="utf-8"?>
<!-- Generator: Adobe Illustrator 27.6.1, SVG Export Plug-In . SVG Version: 6.00 Build 0)  -->
<svg version="1.1"
	 id="Livello_1" xmlns:inkscape="http://www.inkscape.org/namespaces/inkscape" xmlns:svg="http://www.w3.org/2000/svg" xmlns:sodipodi="http://sodipodi.sourceforge.net/DTD/sodipodi-0.dtd" inkscape:version="1.2.2 (732a01da63, 2022-12-09)" sodipodi:docname="logo-top-magenta.svg"
	 xmlns="http://www.w3.org/2000/svg" xmlns:xlink="http://www.w3.org/1999/xlink" x="0px" y="0px" viewBox="0 0 500 425"
	 style="enable-background:new 0 0 500 425;" xml:space="preserve">
<style type="text/css">
	.st0{fill:#F1EC00;}
</style>
<sodipodi:namedview  bordercolor="#000000" borderopacity="0.25" id="namedview47" inkscape:current-layer="Livello_1" inkscape:cx="190.96354" inkscape:cy="221.46644" inkscape:deskcolor="#d1d1d1" inkscape:pagecheckerboard="0" inkscape:pageopacity="0.0" inkscape:showpageshadow="2" inkscape:window-height="1009" inkscape:window-maximized="1" inkscape:window-width="1920" inkscape:window-x="1912" inkscape:window-y="-8" inkscape:zoom="1.9506342" pagecolor="#ffffff" showgrid="false">
	</sodipodi:namedview>
<path id="path2" class="st0" d="M0,273.5l9.5-85.2l22.3-2.4c8.8-0.9,16.5-1.5,23.3,2.1c6.7,3.4,10.5,10.6,9.6,18
	c-0.8,7.6-5.3,13.7-14.3,18.9c9.1,2.4,12.8,10.9,12,18.3c-1.9,16.8-19.4,25.7-40.2,27.9L0,273.5z M26.9,233.9L24.3,257
	c9.1-0.6,15-6.2,15.8-13.3C40.8,237,35.9,232.7,26.9,233.9L26.9,233.9z M30.6,200l-2.3,20.8c8.5-0.9,14.1-5.7,14.8-12.2
	C43.8,202.4,39.4,198.8,30.6,200L30.6,200z"/>
<path id="path4" class="st0" d="M104.7,178.2l-6.1,55.1c-0.7,6.4-2.9,16.3,9.5,15c11.1-1.2,11.8-7.4,12.7-13.7l6.5-58.8l22.7-2.4
	l-6.9,62.2c-1,9-4.1,24.6-36.9,28c-21.2,2.2-33.1-3.8-31.3-19.7l7-63.3L104.7,178.2z"/>
<path id="path6" class="st0" d="M156.1,257l9.5-85.2l22.3-2.4c8.8-0.9,16.5-1.5,23.3,2.1c6.7,3.4,10.5,10.6,9.6,18
	c-0.8,7.6-5.3,13.7-14.3,18.9c9.1,2.4,12.8,10.9,12,18.3c-1.9,16.8-19.4,25.7-40.2,27.9L156.1,257z M182.9,217.4l-2.6,23.1
	c9.1-0.6,15-6.2,15.8-13.3C196.9,220.6,192,216.3,182.9,217.4z M186.7,183.5l-2.3,20.8c8.5-0.9,14.1-5.7,14.8-12.2
	C199.9,186,195.4,182.3,186.7,183.5L186.7,183.5z"/>
<path id="path8" class="st0" d="M229.1,249.3l9.5-85.2l22.3-2.4c8.8-0.9,16.5-1.5,23.3,2.1c6.7,3.4,10.5,10.6,9.6,18
	c-0.8,7.6-5.3,13.7-14.3,18.9c9.1,2.4,12.8,10.9,12,18.3c-1.9,16.8-19.4,25.7-40.2,27.9L229.1,249.3z M256,209.7l-2.6,23.1
	c9.1-0.6,15-6.2,15.8-13.3C270,212.8,265,208.6,256,209.7L256,209.7z M259.8,175.8l-2.3,20.8c8.5-0.9,14.1-5.7,14.8-12.2
	C272.9,178.2,268.5,174.6,259.8,175.8L259.8,175.8z"/>
<path id="path10" class="st0" d="M334.4,154l-7.7,69.4l23.8-2.5l-1.8,15.8l-46.5,4.9l9.5-85.2L334.4,154z"/>
<path id="path12" class="st0" d="M414.4,145.5l-1.8,15.8l-23,2.4l-2.1,18.5l20.3-2.1L406,196l-20.3,2.1l-2.1,19.2l23.3-2.5
	l-1.8,15.8l-46.1,4.9l9.5-85.2L414.4,145.5z"/>
<path id="path14" class="st0" d="M473.6,158.3c-4.8-2.9-10.3-4.2-15.9-3.7c-7,0.7-11.8,4.4-12.4,9.6c-1.6,14,33,11.1,30.4,34.2
	c-1.7,15.1-14.7,27.8-36.1,30.1c-6.4,0.7-14.2,0-19.1-2.2l1.8-16c5.2,2.4,11,3.3,16.7,2.7c7.3-0.8,13.5-5,14.1-10.7
	c0.7-6.6-6-8.3-12-11c-12.4-5.2-19.8-10.6-18.4-23.1c1.5-13.4,13.3-26.2,32.8-28.3c6.6-0.8,13.4-0.1,19.7,2.1L473.6,158.3z"/>
<path id="path16" class="st0" d="M240.3,400.8c-69,0-132.2-34.9-169.1-93.5c-2.3-3.5-1.3-8.2,2.2-10.5c3.5-2.3,8.2-1.3,10.5,2.2
	c0,0.1,0.1,0.1,0.1,0.2c33.7,53.9,92.8,86.5,156.3,86.4c76.9,0,146.5-48.5,173.2-120.8c1.5-3.9,5.8-5.9,9.7-4.4s5.9,5.8,4.4,9.7
	C398.7,348.3,323.4,400.8,240.3,400.8z M277.1,362c-3.5,0-6.5-2.4-7.4-5.8c-0.1-0.6-0.2-1.2-0.2-1.8c0-3.5,2.4-6.5,5.8-7.4
	c2.2-0.5,4.5-1.1,6.7-1.8c4-1.2,8.2,1.2,9.4,5.2c1.2,4-1.2,8.2-5.2,9.4c-2.4,0.7-4.9,1.4-7.4,1.9C278.3,361.9,277.7,362,277.1,362z
	 M305.6,352.2c-4.2,0-7.6-3.4-7.6-7.6c0-3,1.7-5.7,4.4-6.9c17.4-7.9,33.1-19.1,46.4-32.9c2.9-3,7.7-3.1,10.7-0.2
	c3,2.9,3.1,7.7,0.2,10.7c-14.5,15.2-31.9,27.5-51,36.2C307.7,352,306.7,352.2,305.6,352.2L305.6,352.2z"/>
<path id="path18" class="st0" d="M55.3,155.2c-0.7,0-1.4-0.1-2.1-0.3c-4-1.2-6.4-5.3-5.2-9.4C72.3,59.9,151.3,0,240.3,0
	c73.3,0,140.7,40.2,175.6,104.6c2,3.7,0.7,8.3-3,10.3s-8.3,0.7-10.3-3C370.3,52.3,308,15.2,240.3,15.2
	C158.1,15.2,85,70.5,62.6,149.7C61.6,153,58.7,155.2,55.3,155.2z M126.3,98.4c-4.2,0-7.6-3.4-7.6-7.6c0-1.9,0.8-3.8,2.1-5.2
	c14.5-15.2,31.9-27.5,51-36.2c3.8-1.7,8.3,0,10,3.8s0,8.3-3.8,10C160.7,71,144.9,82.2,131.7,96C130.3,97.5,128.3,98.4,126.3,98.4z
	 M196.4,55.8c-3.4,0-6.3-2.2-7.3-5.5c-0.2-0.7-0.3-1.4-0.3-2.1c0-3.4,2.2-6.3,5.5-7.3c2.4-0.7,4.9-1.4,7.3-1.9
	c4.1-1,8.1,1.5,9.1,5.6c0,0,0,0,0,0c1,4.1-1.5,8.2-5.6,9.1c-2.2,0.5-4.5,1.1-6.7,1.8C197.8,55.7,197.1,55.8,196.4,55.8L196.4,55.8z"
	/>
<path id="path20" class="st0" d="M159.4,152.6l5.8-50.7l13.4-1.4c5.3-0.6,9.9-0.9,14,1.2c4,2,6.3,6.3,5.8,10.7
	c-0.5,4.5-3.2,8.2-8.6,11.3c4.8,1.3,7.9,5.9,7.2,10.9c-1.1,10-11.7,15.3-24.2,16.7L159.4,152.6z M175.6,129l-1.6,13.7
	c5.5-0.4,9-3.7,9.5-7.9C184,130.9,181,128.3,175.6,129L175.6,129z M177.8,108.8l-1.4,12.4c5.1-0.5,8.5-3.4,8.9-7.3
	C185.8,110.3,183.1,108.1,177.8,108.8L177.8,108.8z"/>
<path id="path22" class="st0" d="M236.6,94.3l-1.1,9.4l-13.9,1.5l-1.3,11l12.2-1.3l-1.1,9.4l-12.2,1.3l-1.3,11.4l14.1-1.5l-1.1,9.4
	l-27.7,2.9l5.8-50.7L236.6,94.3z"/>
<path id="path24" class="st0" d="M272.6,90.5l-1.1,9.4l-13.9,1.5l-1.3,11l12.2-1.3l-1.1,9.4l-12.2,1.3l-1.3,11.4l14-1.5l-1.1,9.4
	l-27.7,2.9l5.8-50.7L272.6,90.5z"/>
<path id="path26" class="st0" d="M275.3,140.4l5.8-50.7l13.8-1.5c8.7-0.9,24.3-1.9,22.7,12c-0.6,5.6-4.2,10.7-11.3,14.2l9.4,21.8
	l-14.4,1.5l-9.4-22.1l-0.2,0l-2.7,23.4L275.3,140.4z M292.3,110l2.4-0.2c6.2-0.7,9.1-4,9.5-8.2c0.4-3.6-1.6-6.3-8.6-5.3l-1.8,0.2
	L292.3,110z"/>
<path id="path28" class="st0" d="M187,287.8c-0.9-1.2-2.4-1.9-3.9-1.8c-2.4,0.4-4.2,2.5-4.2,4.9c-0.2,3.2,2.1,4.5,4.3,5.9
	c2.2,1.4,4.5,2.9,4.3,6.8c-0.2,4.1-3,8.2-7.3,8.6c-1.5,0.2-3-0.1-4.2-0.9l0.2-3.4c1.1,1.2,2.7,1.9,4.3,1.8c2.7-0.3,4.3-2.8,4.4-5.3
	c0.2-3.3-2.1-4.4-4.3-5.9c-2.2-1.4-4.5-2.9-4.3-6.9c0.2-3.7,2.6-7.6,6.6-8c1.5-0.2,3,0.2,4.2,1L187,287.8z"/>
<path id="path30" class="st0" d="M192.9,310.4l-2.5,0.3l1.4-27.8l2.5-0.3L192.9,310.4z"/>
<path id="path32" class="st0" d="M208.6,308.8l-2.2,0.2l-5.2-18.1c-0.3-1.1-0.5-2.3-0.8-3.5l-0.1,0c0,1.8,0.1,3.5,0,5.4l-0.9,16.9
	l-2.2,0.2l1.4-27.8l2.2-0.2l5.3,18.7c0.3,0.9,0.5,1.9,0.7,2.8l0.1,0c0-1.2-0.1-2.4-0.1-3.7l1-18.5l2.2-0.2L208.6,308.8z"/>
<path id="path34" class="st0" d="M223,306.5c-1,0.8-2.2,1.3-3.5,1.5c-6.4,0.7-6.9-7.8-6.7-12.5c0.2-4.5,0.9-15.3,8.4-16.1
	c1.1-0.2,2.2,0,3.2,0.5l-0.1,2.8c-0.9-0.7-2-1-3.1-0.9c-4.4,0.5-5.4,7.1-5.6,12.2c-0.2,3.2-0.6,11.8,4.2,11.3
	c1.3-0.2,2.5-0.8,3.4-1.6L223,306.5z"/>
<path id="path36" class="st0" d="M236.2,280.5l-6,0.6l-0.5,9.8l5.9-0.6l-0.1,2.4l-5.9,0.6l-0.6,10.9l6-0.6l-0.1,2.4l-8.6,0.9
	l1.4-27.8l8.6-0.9L236.2,280.5z"/>
<path id="path38" class="st0" d="M256.6,303.7l-11.2,1.2l6-11.9c1.7-3.3,4-7.4,4.2-11c0.1-1.9-0.5-3.8-2.8-3.5
	c-2.7,0.3-3.3,3.2-3.4,5.4l0,0.6l-2.5,0.3c0.2-3.8,1.2-8.1,5.9-8.5c3.8-0.4,5.5,2.2,5.3,5.8c-0.2,4-2.5,8.1-4.4,11.8l-4.4,8.6
	l7.4-0.8L256.6,303.7z"/>
<path id="path40" class="st0" d="M273.3,288.1c-0.3,5.5-0.9,14.3-6.9,14.9s-5.7-8.2-5.4-13.6s0.9-14.3,6.9-14.9
	S273.6,282.7,273.3,288.1z M263.5,289.2c-0.3,5-0.5,11.9,3,11.5s4-7.3,4.3-12.3s0.5-11.9-3-11.5S263.8,284.1,263.5,289.2z"/>
<path id="path42" class="st0" d="M283.1,300.9l-2.5,0.3l1.3-25.4l-3.6,0.4l0.7-2.5l5.5-0.6L283.1,300.9z"/>
<path id="path44" class="st0" d="M295.3,284.8L295.3,284.8c0.8-0.6,1.8-1.1,2.8-1.2c4-0.4,4.6,4.6,4.5,7.7c-0.2,3.7-1.4,8-5.8,8.5
	c-4.6,0.5-5.7-3.5-5.4-7.5c0.3-3.7,1.3-7.3,2.9-10.7l4.4-10.1l2.6-0.3L295.3,284.8z M296.9,297.5c2.9-0.3,3.2-4.3,3.3-6.3
	c0.1-2.1-0.1-5.6-2.9-5.3c-2.7,0.3-3.3,3.9-3.4,6.1S293.9,297.8,296.9,297.5z"/>
</svg>
